<?xml version="1.0" encoding="utf-8"?>
<!-- Generator: Adobe Illustrator 16.0.0, SVG Export Plug-In . SVG Version: 6.00 Build 0)  -->
<!DOCTYPE svg PUBLIC "-//W3C//DTD SVG 1.1//EN" "http://www.w3.org/Graphics/SVG/1.1/DTD/svg11.dtd">
<svg version="1.1" xmlns="http://www.w3.org/2000/svg" xmlns:xlink="http://www.w3.org/1999/xlink" x="0px" y="0px" width="143px"
	 height="34px" viewBox="0 0 143 34" enable-background="new 0 0 143 34" xml:space="preserve">
<g id="Calque_2">
</g>
<g id="HEADER">
	<g>
		<g>
			<path fill="#FFFFFF" d="M17.212,33.211C8.272,33.211,1,25.938,1,16.999c0-8.938,7.272-16.21,16.212-16.21
				c0.771,0,1.397,0.626,1.397,1.399c0,0.771-0.627,1.397-1.397,1.397c-7.397,0-13.415,6.017-13.415,13.413
				c0,7.397,6.018,13.414,13.415,13.414c7.396,0,13.412-6.017,13.412-13.414c0-0.771,0.627-1.397,1.399-1.397
				c0.771,0,1.397,0.626,1.397,1.397C33.421,25.938,26.15,33.211,17.212,33.211z"/>
		</g>
		<g>
			<path fill="#FFFFFF" d="M133.267,33.211c-3.547,0-6.622-1.67-7.483-4.059c-0.264-0.728,0.112-1.527,0.839-1.791
				c0.73-0.262,1.528,0.115,1.79,0.841c0.388,1.072,2.22,2.211,4.854,2.211c2.908,0,4.937-1.395,4.937-2.646
				c0-1.191,0-2.424-4.937-2.424c-3.302,0.071-5.209-0.391-6.371-1.528c-0.755-0.743-1.138-1.75-1.138-2.995
				c0-3.015,3.186-5.202,7.574-5.202c3.519,0,6.464,1.549,7.33,3.854c0.271,0.723-0.095,1.529-0.816,1.802
				c-0.726,0.271-1.53-0.094-1.804-0.818c-0.377-1.004-2.241-2.041-4.71-2.041c-2.592,0-4.778,1.101-4.778,2.405
				c0,0.622,0.16,0.859,0.301,0.997c0.374,0.366,1.42,0.787,4.385,0.73h0.002c3.851,0,7.759,0.62,7.759,5.22
				C141,30.819,137.604,33.211,133.267,33.211z"/>
		</g>
		<g>
			<path fill="#FFFFFF" d="M63.523,33.211c-0.771,0-1.397-0.627-1.397-1.399v-8.098c0-2.879-2.343-5.223-5.225-5.223
				c-2.88,0-5.224,2.344-5.224,5.223v8.098c0,0.772-0.627,1.399-1.398,1.399s-1.398-0.627-1.398-1.399v-8.098
				c0-4.421,3.599-8.019,8.021-8.019s8.021,3.598,8.021,8.019v8.098C64.923,32.584,64.297,33.211,63.523,33.211z"/>
		</g>
		<g>
			<path fill="#FFFFFF" d="M38.645,33.211c-4.422,0-8.021-3.599-8.021-8.02v-8.203c0-0.772,0.627-1.398,1.399-1.398
				c0.771,0,1.397,0.626,1.397,1.398v8.203c0,2.881,2.344,5.222,5.224,5.222s5.225-2.341,5.225-5.222v-8.203
				c0-0.772,0.626-1.398,1.398-1.398c0.771,0,1.397,0.626,1.397,1.398v8.203C46.665,29.612,43.068,33.211,38.645,33.211z"/>
		</g>
		<g>
			<path fill="#FFFFFF" d="M88.443,33.211c-4.425,0-8.021-3.599-8.021-8.02v-8.203c0-0.772,0.626-1.398,1.396-1.398
				c0.773,0,1.397,0.626,1.397,1.398v8.203c0,2.881,2.348,5.222,5.228,5.222s5.225-2.341,5.225-5.222v-8.203
				c0-0.772,0.624-1.398,1.397-1.398c0.771,0,1.397,0.626,1.397,1.398v8.203C96.463,29.612,92.865,33.211,88.443,33.211z"/>
		</g>
		<g>
			<path fill="#FFFFFF" d="M116.241,33.211c-4.422,0-8.021-3.599-8.021-8.02v-8.194c0-0.772,0.627-1.397,1.399-1.397
				c0.771,0,1.398,0.625,1.398,1.397v8.194c0,2.881,2.342,5.222,5.223,5.222c2.88,0,5.224-2.341,5.224-5.222v-8.194
				c0-0.772,0.628-1.397,1.399-1.397s1.398,0.625,1.398,1.397v8.194C124.263,29.612,120.662,33.211,116.241,33.211z"/>
		</g>
		<g>
			<path fill="#FFFFFF" d="M107.124,33.211c-4.422,0-8.018-3.599-8.018-8.02V7.699c0-0.773,0.624-1.399,1.397-1.399
				c0.771,0,1.397,0.626,1.397,1.399v17.492c0,2.881,2.342,5.222,5.223,5.222c0.772,0,1.398,0.626,1.398,1.398
				S107.896,33.211,107.124,33.211z"/>
		</g>
		<g>
			<path fill="#FFFFFF" d="M76.769,33.211c-0.772,0-1.397-0.627-1.397-1.399v-8.098c0-2.879-2.345-5.223-5.223-5.223
				c-2.882,0-5.226,2.344-5.226,5.223v8.098c0,0.772-0.626,1.399-1.399,1.399c-0.771,0-1.397-0.627-1.397-1.399v-8.098
				c0-4.421,3.598-8.019,8.022-8.019c4.422,0,8.017,3.598,8.017,8.019v8.098C78.165,32.584,77.541,33.211,76.769,33.211z"/>
		</g>
	</g>
</g>
</svg>
